<?xml version="1.0" encoding="utf-8"?>
<svg version="1.1" xmlns:xlink="http://www.w3.org/1999/xlink" width="40px" height="50px" xmlns="http://www.w3.org/2000/svg">
  <defs>
    <filter x="350px" y="90px" width="40px" height="50px" filterUnits="userSpaceOnUse" id="filter1">
      <feOffset dx="1" dy="1" in="SourceAlpha" result="shadowOffsetInner" />
      <feGaussianBlur stdDeviation="2.5" in="shadowOffsetInner" result="shadowGaussian" />
      <feComposite in2="shadowGaussian" operator="atop" in="SourceAlpha" result="shadowComposite" />
      <feColorMatrix type="matrix" values="0 0 0 0 0  0 0 0 0 0  0 0 0 0 0  0 0 0 0.698039215686274 0  " in="shadowComposite" />
    </filter>
    <g id="widget2">
      <path d="M 369 133.036928468354  C 363.2 123.40734059591  354.5 117.629587872444  354.5 108  C 354.5 102.985714285714  357.4 94.5  369 94.5  C 380.6 94.5  383.5 102.985714285714  383.5 108  C 383.5 117.629587872444  374.8 123.40734059591  369 133.036928468354  Z " fill-rule="nonzero" fill="#009dd9" stroke="none" />
      <path d="M 369 134  C 363 124  354 118  354 108  C 354 102.8  357 94  369 94  C 381 94  384 102.8  384 108  C 384 118  375 124  369 134  Z M 369 132.073856936707  C 374.6 122.81468119182  383 117.259175744887  383 108  C 383 103.171428571429  380.2 95  369 95  C 357.8 95  355 103.171428571429  355 108  C 355 117.259175744887  363.4 122.81468119182  369 132.073856936707  Z " fill-rule="nonzero" fill="#ffffff" stroke="none" />
    </g>
  </defs>
  <g transform="matrix(1 0 0 1 -350 -90 )">
    <use xlink:href="#widget2" filter="url(#filter1)" />
    <use xlink:href="#widget2" />
  </g>
</svg>